# xmcd
#
# Track frame offsets:
#	150
#	12714
#	26685
#	39635
#	51384
#	67043
#	80107
#	93095
#	107872
#	122813
#	134981
#	148845
#	165109
#	177794
#	190456
#	202006
#	214759
#	228036
#	241059
#	255869
#	268482
#	279417
#	289622
#	302152
#
# Disc length: 4226 seconds
#
# Revision: 1
# Processed by: cddbd v1.5.2PL0 Copyright (c) Steve Scherf et al.
# Submitted via: audiograbber 1.83.01
#
DISCID=6c108018
DTITLE=James Elmore - Slide My Blues
DYEAR=1900
DGENRE=
TTITLE0=Dust My Broom
TTITLE1=Please Find My Baby (Lost Woman Blues)
TTITLE2=Hand In Hand
TTITLE3=Rock My Baby Right
TTITLE4=I Held My Baby Last Night
TTITLE5=Baby What's Wrong
TTITLE6=Sinful Woman
TTITLE7=I Believe
TTITLE8=Whose Muddy Shoes
TTITLE9=Country Boogie (Tool Bag Boogie)
TTITLE10=She Just Won't Do Right (Going For Good)
TTITLE11=My Best Friend
TTITLE12=Early In The Morning
TTITLE13=Dark And Dreary
TTITLE14=Strange Kinda Feeling
TTITLE15=Make A Little Love
TTITLE16=Where Can My Baby Be
TTITLE17=Sho' Nuff I Do
TTITLE18=1839 Blues
TTITLE19=Standing At The Crossroads
TTITLE20=No Love In My Heart
TTITLE21=Mean And Evil
TTITLE22=Happy Home
TTITLE23=Sunny Land
EXTD=
EXTT0=
EXTT1=
EXTT2=
EXTT3=
EXTT4=
EXTT5=
EXTT6=
EXTT7=
EXTT8=
EXTT9=
EXTT10=
EXTT11=
EXTT12=
EXTT13=
EXTT14=
EXTT15=
EXTT16=
EXTT17=
EXTT18=
EXTT19=
EXTT20=
EXTT21=
EXTT22=
EXTT23=
PLAYORDER=
